<svg xmlns="http://www.w3.org/2000/svg" viewBox="0 0 500 500"><g id="freepik--background-simple--inject-7"><path d="M238.71,35.84c-15.44-.54-30.92,1.56-46.28,5C154.78,49.32,118,63.35,89.08,87.14,55.89,114.47,37.79,154,28.21,194.7c-8.35,35.47-10.25,69.62.61,106C46.93,361.35,94.28,421.05,154.62,451c66.2,32.84,149.51,47.1,215.25,16.94,29.14-13.37,53.17-35,70.75-60.5,29.26-42.44,42.09-95.13,41.29-147-.42-27.89-1.82-61.68-21.52-85.51-16.23-19.64-42.62-23.73-65.41-32.38-34.24-13-45.41-42.76-69.09-66.4C302.81,53,271.64,37,238.71,35.84Z" style="fill:#DBCDCD"></path><path d="M238.71,35.84c-15.44-.54-30.92,1.56-46.28,5C154.78,49.32,118,63.35,89.08,87.14,55.89,114.47,37.79,154,28.21,194.7c-8.35,35.47-10.25,69.62.61,106C46.93,361.35,94.28,421.05,154.62,451c66.2,32.84,149.51,47.1,215.25,16.94,29.14-13.37,53.17-35,70.75-60.5,29.26-42.44,42.09-95.13,41.29-147-.42-27.89-1.82-61.68-21.52-85.51-16.23-19.64-42.62-23.73-65.41-32.38-34.24-13-45.41-42.76-69.09-66.4C302.81,53,271.64,37,238.71,35.84Z" style="fill:#fff;opacity:0.7000000000000001"></path></g><g id="freepik--Clock--inject-7"><circle cx="131.06" cy="94.7" r="48.26" style="fill:none;stroke:#263238;stroke-linecap:round;stroke-linejoin:round"></circle><circle cx="131.06" cy="94.7" r="44.36" style="fill:none;stroke:#263238;stroke-linecap:round;stroke-linejoin:round"></circle><line x1="128.92" y1="96.2" x2="101.07" y2="115.71" style="fill:none;stroke:#263238;stroke-linecap:round;stroke-linejoin:round"></line><line x1="120.85" y1="76.73" x2="129.99" y2="92.82" style="fill:none;stroke:#263238;stroke-linecap:round;stroke-linejoin:round"></line><path d="M133.34,94.7a2.28,2.28,0,1,1-2.28-2.28A2.28,2.28,0,0,1,133.34,94.7Z" style="fill:none;stroke:#263238;stroke-linecap:round;stroke-linejoin:round"></path></g><g id="freepik--Folders--inject-7"><rect x="320.45" y="147.95" width="27.19" height="103.82" style="fill:#7a7a7a;stroke:#263238;stroke-linecap:round;stroke-linejoin:round"></rect><rect x="293.7" y="147.95" width="27.19" height="103.82" style="fill:#c7c7c7;stroke:#263238;stroke-linecap:round;stroke-linejoin:round"></rect><rect x="298.74" y="155.77" width="17.1" height="88.18" style="fill:#fff;stroke:#263238;stroke-linecap:round;stroke-linejoin:round"></rect><rect x="266.51" y="147.95" width="27.19" height="103.82" style="fill:#c7c7c7;stroke:#263238;stroke-linecap:round;stroke-linejoin:round"></rect><rect x="271.56" y="155.77" width="17.1" height="88.18" style="fill:#fff;stroke:#263238;stroke-linecap:round;stroke-linejoin:round"></rect><rect x="239.33" y="147.95" width="27.19" height="103.82" style="fill:#c7c7c7;stroke:#263238;stroke-linecap:round;stroke-linejoin:round"></rect><rect x="244.37" y="155.77" width="17.1" height="88.18" style="fill:#fff;stroke:#263238;stroke-linecap:round;stroke-linejoin:round"></rect></g><g id="freepik--Plant--inject-7"><polygon points="375.27 224.48 361.57 162.06 374.81 198.02 374.31 166.06 380.55 191.78 386.29 134.85 396.53 201.51 404.77 184.78 405.01 196.77 408.51 190.78 411.51 203.26 418.75 155.32 423.74 203.01 435.72 177.04 430.73 193.77 440.72 176.3 424.91 224.48 375.27 224.48" style="fill:#DBCDCD"></polygon><rect x="362.81" y="215.26" width="71.79" height="36.95" style="fill:#fff;stroke:#263238;stroke-linecap:round;stroke-linejoin:round"></rect><rect x="419.78" y="215.26" width="14.82" height="36.95" style="fill:#d4d4d4;stroke:#263238;stroke-linecap:round;stroke-linejoin:round"></rect><line x1="417.13" y1="228.52" x2="431.4" y2="228.52" style="fill:none;stroke:#263238;stroke-linecap:round;stroke-linejoin:round"></line><line x1="373.53" y1="228.52" x2="410.7" y2="228.52" style="fill:none;stroke:#263238;stroke-linecap:round;stroke-linejoin:round"></line><line x1="364.76" y1="228.52" x2="371.15" y2="228.52" style="fill:none;stroke:#263238;stroke-linecap:round;stroke-linejoin:round"></line><line x1="410.22" y1="240.78" x2="427.14" y2="240.78" style="fill:none;stroke:#263238;stroke-linecap:round;stroke-linejoin:round"></line><line x1="386.62" y1="240.78" x2="404.03" y2="240.78" style="fill:none;stroke:#263238;stroke-linecap:round;stroke-linejoin:round"></line></g><g id="freepik--Furniture--inject-7"><rect x="434.92" y="251.97" width="26.04" height="112.49" transform="translate(895.89 616.44) rotate(180)" style="fill:#d4d4d4;stroke:#263238;stroke-linecap:round;stroke-linejoin:round"></rect><rect x="226.89" y="251.97" width="208.03" height="112.49" style="fill:#fff;stroke:#263238;stroke-linecap:round;stroke-linejoin:round"></rect><rect x="434.92" y="251.97" width="26.04" height="17.03" transform="translate(895.89 520.98) rotate(180)" style="fill:#263238;stroke:#263238;stroke-linecap:round;stroke-linejoin:round"></rect><rect x="226.89" y="251.97" width="208.03" height="17.03" style="fill:#263238;stroke:#263238;stroke-linecap:round;stroke-linejoin:round"></rect><rect x="232.02" y="271.69" width="197.78" height="35.81" style="fill:#fff;stroke:#263238;stroke-linecap:round;stroke-linejoin:round"></rect><rect x="306.97" y="286.62" width="47.88" height="5.94" style="fill:#d4d4d4;stroke:#263238;stroke-linecap:round;stroke-linejoin:round"></rect><rect x="232.02" y="316.47" width="197.78" height="35.81" style="fill:#fff;stroke:#263238;stroke-linecap:round;stroke-linejoin:round"></rect><rect x="306.97" y="331.19" width="47.88" height="5.94" style="fill:#d4d4d4;stroke:#263238;stroke-linecap:round;stroke-linejoin:round"></rect><rect x="222.95" y="251.97" width="215.91" height="11.2" style="fill:#878787;stroke:#263238;stroke-linecap:round;stroke-linejoin:round"></rect><rect x="438.87" y="251.97" width="27.79" height="11.2" transform="translate(905.52 515.14) rotate(180)" style="fill:#404040;stroke:#263238;stroke-linecap:round;stroke-linejoin:round"></rect></g><g id="freepik--Table--inject-7"><polyline points="480.76 364.68 227.38 364.68 20.32 455.56" style="fill:none;stroke:#263238;stroke-linecap:round;stroke-linejoin:round"></polyline></g><g id="freepik--Device--inject-7"><polygon points="379.14 378.59 379.14 376.7 253.81 403.96 253.81 405.85 351 405.85 379.14 378.59" style="fill:#c7c7c7;stroke:#263238;stroke-linecap:round;stroke-linejoin:round"></polygon><polygon points="379.14 376.7 297.79 376.7 253.81 403.96 351 403.96 379.14 376.7" style="fill:#c7c7c7;stroke:#263238;stroke-linecap:round;stroke-linejoin:round"></polygon><polygon points="306.9 389.42 313.76 389.42 317.26 386.75 310.57 386.75 306.9 389.42" style="fill:#263238"></polygon><polygon points="306.75 394.78 312.13 390.66 305.21 390.66 299.56 394.78 306.75 394.78" style="fill:#263238"></polygon><polygon points="340 386.75 334.09 386.75 331.04 389.42 337.15 389.42 340 386.75" style="fill:#263238"></polygon><polygon points="315.8 389.42 321.6 389.42 324.75 386.75 319.3 386.75 315.8 389.42" style="fill:#263238"></polygon><polygon points="320.92 385.51 326.21 385.51 329.85 382.42 324.96 382.42 320.92 385.51" style="fill:#263238"></polygon><polygon points="335.83 390.66 329.62 390.66 324.92 394.78 331.45 394.78 335.83 390.66" style="fill:#263238"></polygon><polygon points="320.14 390.66 314.18 390.66 308.79 394.78 315.29 394.78 320.14 390.66" style="fill:#263238"></polygon><polygon points="327.74 390.66 322.05 390.66 317.2 394.78 323.04 394.78 327.74 390.66" style="fill:#263238"></polygon><polygon points="323.51 389.42 329.16 389.42 332.21 386.75 326.67 386.75 323.51 389.42" style="fill:#263238"></polygon><polygon points="325.83 380.19 319.54 380.19 318.19 381.18 324.54 381.18 325.83 380.19" style="fill:#263238"></polygon><polygon points="362.08 381.18 363.07 380.19 356.72 380.19 355.74 381.18 362.08 381.18" style="fill:#263238"></polygon><polygon points="351.44 385.51 357.73 385.51 360.83 382.42 354.51 382.42 351.44 385.51" style="fill:#263238"></polygon><polygon points="291.77 396.02 286.92 399.27 291.31 399.27 295.76 396.02 291.77 396.02" style="fill:#263238"></polygon><polygon points="348.45 386.75 341.8 386.75 338.96 389.42 345.79 389.42 348.45 386.75" style="fill:#263238"></polygon><polygon points="328.12 385.51 333.62 385.51 337.15 382.42 331.76 382.42 328.12 385.51" style="fill:#263238"></polygon><polygon points="343.12 385.51 349.69 385.51 352.76 382.42 346.4 382.42 343.12 385.51" style="fill:#263238"></polygon><polygon points="335.51 385.51 341.31 385.51 344.6 382.42 339.03 382.42 335.51 385.51" style="fill:#263238"></polygon><polygon points="301.62 389.42 304.8 389.42 308.47 386.75 305.61 386.75 301.62 389.42" style="fill:#263238"></polygon><polygon points="344.56 390.66 337.64 390.66 333.26 394.78 340.46 394.78 344.56 390.66" style="fill:#263238"></polygon><polygon points="331.94 396.02 328.49 399.27 335.99 399.27 339.22 396.02 331.94 396.02" style="fill:#263238"></polygon><polygon points="330.14 396.02 323.51 396.02 319.8 399.27 326.68 399.27 330.14 396.02" style="fill:#263238"></polygon><polygon points="315.74 396.02 311.91 399.27 317.92 399.27 321.63 396.02 315.74 396.02" style="fill:#263238"></polygon><polygon points="340.97 396.02 337.73 399.27 343.89 399.27 347.16 396.02 340.97 396.02" style="fill:#263238"></polygon><polygon points="313.83 396.02 307.17 396.02 302.91 399.27 310 399.27 313.83 396.02" style="fill:#263238"></polygon><polygon points="352.55 390.66 346.3 390.66 342.2 394.78 348.41 394.78 352.55 390.66" style="fill:#263238"></polygon><polygon points="316.09 381.18 317.44 380.19 315.38 380.19 313.91 381.18 316.09 381.18" style="fill:#263238"></polygon><polygon points="297.46 394.78 303.1 390.66 299.77 390.66 293.62 394.78 297.46 394.78" style="fill:#263238"></polygon><polygon points="345.91 381.18 346.96 380.19 341.57 380.19 340.44 381.18 345.91 381.18" style="fill:#263238"></polygon><polygon points="331.31 381.18 332.46 380.19 327.87 380.19 326.58 381.18 331.31 381.18" style="fill:#263238"></polygon><polygon points="297.87 396.02 293.41 399.27 300.87 399.27 305.13 396.02 297.87 396.02" style="fill:#263238"></polygon><polygon points="347.72 381.18 354 381.18 354.97 380.19 348.77 380.19 347.72 381.18" style="fill:#263238"></polygon><polygon points="333.22 381.18 338.56 381.18 339.69 380.19 334.38 380.19 333.22 381.18" style="fill:#263238"></polygon><polygon points="356.48 386.75 350.2 386.75 347.54 389.42 353.79 389.42 356.48 386.75" style="fill:#263238"></polygon><polygon points="312.27 385.51 318.88 385.51 322.92 382.42 316.5 382.42 312.27 385.51" style="fill:#263238"></polygon><polygon points="307.46 385.51 310.16 385.51 314.39 382.42 312.06 382.42 307.46 385.51" style="fill:#263238"></polygon><polygon points="351 403.96 375.63 297.1 399.37 284.35 379.14 376.7 351 403.96" style="fill:#a3a3a3;stroke:#263238;stroke-linecap:round;stroke-linejoin:round"></polygon></g><g id="freepik--Mug--inject-7"><path d="M251.2,427.79H251c-2.64,0-16.06-.19-20.76-4s-11.53-17.79-8.19-24.54c3.18-6.4,17.18-4.07,23-2.78l-1.31,5.94c-7.19-1.58-15.12-1.78-16.32-.41-1.33,2.71,2.49,13.74,6.59,17.05,2,1.61,10.21,2.61,16.76,2.63l2.7-.31.69,6.05Z" style="fill:#DBCDCD;stroke:#263238;stroke-linecap:round;stroke-linejoin:round"></path><path d="M237.27,395.84l8.54,54.77c0,2.65,7.16,4.8,16,4.8s16-2.15,16-4.8l8.53-54.77Z" style="fill:#DBCDCD;stroke:#263238;stroke-linecap:round;stroke-linejoin:round"></path><path d="M286.35,395.84c0,2.65-11,4.8-24.54,4.8s-24.54-2.15-24.54-4.8,11-4.81,24.54-4.81S286.35,393.18,286.35,395.84Z" style="fill:#DBCDCD;stroke:#263238;stroke-linecap:round;stroke-linejoin:round"></path><path d="M251.62,385.3s-5.07-10.77.63-18.37,12.18-19.15,10.92-28" style="fill:none;stroke:#263238;stroke-miterlimit:10"></path><path d="M277,364.39s-10.13,8.24-6.33,19" style="fill:none;stroke:#263238;stroke-miterlimit:10"></path><path d="M279.1,362.07s3.24-3.23,4.23-6.47" style="fill:none;stroke:#263238;stroke-miterlimit:10"></path></g><g id="freepik--Character--inject-7"><path d="M36.82,448.05,14.46,331.58a8.62,8.62,0,0,1,6.88-10.1l59.52-11.14A7.56,7.56,0,0,1,89.6,316l23.6,98.77Z" style="fill:#263238;stroke:#263238;stroke-linecap:round;stroke-linejoin:round"></path><path d="M203.57,146.87s17.89,7.53,20.71,12.47-4.94,15.53-8.7,17.42a43.61,43.61,0,0,1-6.12,2.59s5.41-2.83,7.29-6.12a16.48,16.48,0,0,0,2.12-4.94s-5.88,4.94-9.65,4.94-10.35-8.47-9.88-15.77S203.57,146.87,203.57,146.87Z" style="fill:#263238;stroke:#263238;stroke-linecap:round;stroke-linejoin:round"></path><path d="M91,254s-13.84,16-17.39,53.24,0,84.11,2.84,95.82,1.42,27.32,1.42,27.32l88.21-38.85-.2-5.15s8.52-16.33,9.94-23.43,6.74-13.13,3.91-36.55-5.33-38-14.2-55-20.23-27-32.65-31.58S91,254,91,254Z" style="fill:#DBCDCD;stroke:#263238;stroke-linecap:round;stroke-linejoin:round"></path><path d="M211.71,180.77s5.45,7,8.63,10.9,3.86,13.63,5,18.18-4.77,14.31-5.68,17.49-4.32,21.36-4.32,21.36S234,291.18,236,306.86s-3,40.89-4.32,45-3.64,7-8.63,8.4-11.59,7.73-19.77-2.72-23.4-36.12-35.44-57.93S145.37,262.33,137.65,256,122,244.15,122,244.15s28.17,0,37.49-.45,11.58.23,15,5.22,13,28,19.76,40,9.32,17.26,9.32,17.26,0-37.25-.68-45.43-2.27-11.36-3.41-15.68-2-11.81-1.82-12.72,3.41-18.4,3.41-18.4l1.59-21.36S198.08,171.23,211.71,180.77Z" style="fill:#DBCDCD;stroke:#263238;stroke-linecap:round;stroke-linejoin:round"></path><path d="M203.53,306.17s-7.95,21.13-5.23,28.17" style="fill:none;stroke:#263238;stroke-linecap:round;stroke-linejoin:round"></path><path d="M201.94,310s-8.18,7-9.54,11.81" style="fill:none;stroke:#263238;stroke-linecap:round;stroke-linejoin:round"></path><path d="M190.13,315.94s5.22-5.45,9.54-6.81" style="fill:none;stroke:#263238;stroke-linecap:round;stroke-linejoin:round"></path><line x1="179.68" y1="285.95" x2="183.31" y2="315.94" style="fill:none;stroke:#263238;stroke-linecap:round;stroke-linejoin:round"></line><path d="M215.34,248.7s3.41-18.18,4.32-21.36,6.81-13,5.68-17.49-1.82-14.31-5-18.18-8.63-10.9-8.63-10.9c-13.63-9.54-9.09,11.81-9.09,11.81L201,213.94s-3.18,17.49-3.41,18.4.68,8.41,1.82,12.72,2.73,7.5,3.41,15.68.68,45.43.68,45.43-.91,8.86,1.59,13.18,10.22,12.5,18.17,11.36c6.39-.91,10.48-3.32,13.05-9.78a80.78,80.78,0,0,0-.32-14.07C234,291.18,215.34,248.7,215.34,248.7Z" style="fill:#fff;stroke:#263238;stroke-linecap:round;stroke-linejoin:round"></path><path d="M211.59,185.56s7.82,10,8.89,12.94,2.7,13.74,2.16,16.17" style="fill:#fff;stroke:#263238;stroke-linecap:round;stroke-linejoin:round"></path><path d="M205.46,154.87s7.76,19.77,7.76,25.18-.23,9.18-2.35,13.89-.94,11.06,1.65,13.65,3.06,3.53,2.11,8-3.53,12-9.41,20.47S197,246,192.75,245.24s-11.53-4-11.53-4-8.48,6.82-10.12,16.94a90.94,90.94,0,0,0-.47,22.36c.23,3.77-7.53,2.35-13.89-5.88a126.86,126.86,0,0,1-10.59-16.48c-.47-.7,14.83-4.47,11.3-18.82s-13.18-12.24-17.65-25.42-5.89-19.3,5.65-32.48,31.77-18.59,39.77-24.94S205.46,154.87,205.46,154.87Z" style="fill:#fff;stroke:#263238;stroke-linecap:round;stroke-linejoin:round"></path><path d="M193.31,184.33a18.29,18.29,0,0,1,8.5-4.82c4.83-1,6.38,4.63,6.38,4.63S202.39,178.54,193.31,184.33Z" style="fill:#263238"></path><polygon points="181.22 241.24 176.44 238.37 172.66 252.81 181.22 241.24" style="fill:#263238;stroke:#263238;stroke-linecap:round;stroke-linejoin:round"></polygon><path d="M200.2,225.08a10.72,10.72,0,0,1,8.37.55" style="fill:none;stroke:#263238;stroke-linecap:round;stroke-linejoin:round"></path><path d="M201.14,189.93s-.85,5.71.29,8" style="fill:none;stroke:#263238;stroke-linecap:round;stroke-linejoin:round"></path><path d="M189.72,196.21s10.85,1.14,14,0l-.28,2,2,.29S197.14,204.78,189.72,196.21Z" style="fill:#263238"></path><path d="M203.1,212.06s0,3.76,1.41,4.23,3.06.47,5.65-.47" style="fill:none;stroke:#263238;stroke-linecap:round;stroke-linejoin:round"></path><path d="M208.75,150.16s-5.18,16-15.3,25.89-28.24,7.3-28.24,7.3-1.17,8.23-4.47,9.88-4.7-.94-8-2.12-14.59,6.83-5.65,18.36,14.12,3.29,20,18.35,4.94,24.48-4,33.89-18.6,5-32-3.53-25.65-10.35-33.89-3.29-16.47,20.47-18.35,24.47-2.59,5.89-2.59,5.89S62.14,279.6,57.9,267.83s-4.23-24.24,8.71-24.71,14.82.47,11.77-13.41S84,200.06,98.14,203.59,113,201,113.2,180.76s9.18-41.89,33.66-48.72S207.1,138.87,208.75,150.16Z" style="fill:#263238;stroke:#263238;stroke-linecap:round;stroke-linejoin:round"></path><path d="M86.48,329.94s26.72-4.34,42.24-13.72" style="fill:none;stroke:#263238;stroke-linecap:round;stroke-linejoin:round"></path><path d="M130.89,322.72s-12.28,12.27-19.14,17" style="fill:none;stroke:#263238;stroke-linecap:round;stroke-linejoin:round"></path><path d="M90.45,403.23S115,384.82,131.61,365" style="fill:none;stroke:#263238;stroke-linecap:round;stroke-linejoin:round"></path><path d="M218.3,355.25l12-.69a37.39,37.39,0,0,0,2.72-8.4c.68-4.09,2-11.83,2-11.83s3.48,5.69,7.79,7.74,6.36,6.59,6.82,10.22.45,12.27-1.37,16.13S235.33,382.05,229,385.69,221,390,221,390s3.64-19.53,2.27-25A27.43,27.43,0,0,0,218.3,355.25Z" style="fill:#fff;stroke:#263238;stroke-linecap:round;stroke-linejoin:round"></path><line x1="230.34" y1="354.56" x2="244.88" y2="350.47" style="fill:none;stroke:#263238;stroke-linecap:round;stroke-linejoin:round"></line><path d="M98.34,293a222.36,222.36,0,0,1,17.72,17.72c8.18,9.31,42.68,61.08,42.68,61.08s2.27,2.27,4.54,4.32,4.32,2.95,6.82,5.45.45,5,3.86,8.63,13.5,4.92,21.22,6.51,23.57-4.43,27.43-7.39,7.73-12.27,4.77-23.62-8.4-10.91-11.13-11.14a17.85,17.85,0,0,0-4.77.23s-2.27-2.73-3.63-4.54a2.87,2.87,0,0,0-3.41-.91,55.36,55.36,0,0,0-3.41-5.23c-1.59-2-2.95-1.36-2.95-1.36s-20.68-34.53-33.17-54.52c-8-12.85-15.78-23.64-20.29-29.7a44.51,44.51,0,0,0-15.47-13.23,28.24,28.24,0,0,0-12-3.42c-22.72-.45-35.89,21.36-38.62,40.44" style="fill:#DBCDCD;stroke:#263238;stroke-linecap:round;stroke-linejoin:round"></path><path d="M197.4,345.48s-4.78,2-12.5-.23c-.45-.13-.91-.29-1.39-.47" style="fill:none;stroke:#263238;stroke-linecap:round;stroke-linejoin:round"></path><path d="M171.22,349.43a44.58,44.58,0,0,1-4.72-3" style="fill:none;stroke:#263238;stroke-linecap:round;stroke-linejoin:round"></path><path d="M204.67,352.29s-5.68,4.32-17,3A42.86,42.86,0,0,1,174.18,351" style="fill:none;stroke:#263238;stroke-linecap:round;stroke-linejoin:round"></path><path d="M211,356.38s.22,15-6.82,20.45" style="fill:none;stroke:#263238;stroke-linecap:round;stroke-linejoin:round"></path><path d="M217.79,224a63.64,63.64,0,0,0,1.67-11.45c0-4.46-4.19-10.33-5.86-14.51-2.27-5.66-5-4.75-4.19-.84s3.11,10.43,3.11,10.43,1.64,10.79-.87,15.53-9.22,14.8-10.05,19.82.67,5,.67,5" style="fill:#fff;stroke:#263238;stroke-linecap:round;stroke-linejoin:round"></path></g></svg>